<?xml version="1.0" standalone="no"?>
<!DOCTYPE svg PUBLIC "-//W3C//DTD SVG 20010904//EN"
 "http://www.w3.org/TR/2001/REC-SVG-20010904/DTD/svg10.dtd">
<svg version="1.0" xmlns="http://www.w3.org/2000/svg"
 width="700.000000pt" height="700.000000pt" viewBox="0 0 700.000000 700.000000"
 preserveAspectRatio="xMidYMid meet">
<metadata>
Created by potrace 1.11, written by Peter Selinger 2001-2013
</metadata>
<g transform="translate(0.000000,700.000000) scale(0.100000,-0.100000)"
fill="#000000" stroke="none">
<path d="M3240 6333 c-1200 -115 -2203 -973 -2496 -2132 -66 -262 -79 -381
-79 -706 1 -314 13 -425 71 -663 250 -1029 1055 -1838 2079 -2091 261 -64 361
-75 685 -75 324 0 424 11 685 75 972 240 1756 988 2040 1949 88 296 120 545
112 880 -8 328 -43 538 -142 836 -302 909 -1066 1617 -1995 1850 -242 61 -365
75 -655 79 -143 1 -280 1 -305 -2z m1810 -1103 c21 -11 49 -34 62 -52 l23 -33
2 -1635 3 -1635 -23 -40 c-14 -26 -37 -48 -67 -62 l-44 -23 -1506 0 c-1446 0
-1507 1 -1546 19 -23 10 -52 34 -65 52 l-24 34 0 1645 0 1645 23 33 c13 18 40
41 60 52 36 19 73 19 1550 20 1488 0 1513 0 1552 -20z"/>
<path d="M2206 4904 c-14 -13 -16 -61 -16 -368 0 -260 3 -355 12 -364 17 -17
2579 -17 2596 0 9 9 12 104 12 364 0 307 -2 355 -16 368 -14 14 -145 16 -1294
16 -1149 0 -1280 -2 -1294 -16z"/>
<path d="M2206 3974 c-10 -10 -16 -33 -16 -64 0 -88 -130 -80 1310 -80 1440 0
1310 -8 1310 80 0 88 130 80 -1310 80 -1149 0 -1280 -2 -1294 -16z"/>
<path d="M2202 3648 c-9 -9 -12 -73 -12 -228 0 -197 2 -218 18 -233 17 -15 71
-17 578 -17 490 0 562 2 582 16 22 15 22 19 22 225 0 126 -4 218 -10 230 -10
18 -27 19 -588 19 -436 0 -581 -3 -590 -12z"/>
<path d="M3679 3643 c-22 -26 -18 -112 5 -129 17 -12 112 -14 583 -14 550 0
563 0 583 20 24 24 27 86 4 118 l-15 22 -573 0 c-521 0 -575 -2 -587 -17z"/>
<path d="M3702 3330 c-28 -12 -45 -55 -37 -97 12 -67 -21 -63 599 -63 448 0
566 3 580 13 28 21 33 96 8 127 l-20 25 -554 2 c-320 1 -563 -2 -576 -7z"/>
<path d="M2212 2994 c-20 -14 -23 -23 -20 -72 3 -49 6 -58 28 -69 20 -10 291
-13 1280 -13 989 0 1260 3 1280 13 22 11 25 20 28 69 5 97 135 88 -1308 88
-1141 0 -1268 -2 -1288 -16z"/>
<path d="M2207 2662 c-20 -22 -23 -112 -5 -130 17 -17 2579 -17 2596 0 7 7 12
35 12 63 0 94 134 85 -1312 85 -1222 0 -1276 -1 -1291 -18z"/>
<path d="M2206 2334 c-10 -10 -16 -33 -16 -64 0 -88 -110 -80 1149 -80 855 0
1120 3 1129 12 7 7 12 38 12 70 0 46 -4 59 -19 68 -13 7 -384 10 -1130 10
-995 0 -1111 -2 -1125 -16z"/>
</g>
</svg>
